<svg width="1024" height="753" viewBox="0 0 1024 753" fill="none" xmlns="http://www.w3.org/2000/svg">
<g clip-path="url(#clip0_122_130)">
<rect width="1024" height="753" fill="#121214"/>
<g opacity="0.2" filter="url(#filter0_f_122_130)">
<ellipse cx="528.5" cy="31" rx="670.5" ry="350" fill="#35875D"/>
</g>
<path d="M49.0349 267C50.5302 267 51.6622 267.63 52.4308 268.891C53.2134 270.138 53.6047 271.953 53.6047 274.336C53.6047 276.719 53.2134 278.541 52.4308 279.802C51.6622 281.063 50.5302 281.693 49.0349 281.693C47.5536 281.693 46.4216 281.063 45.639 279.802C44.8564 278.541 44.4651 276.719 44.4651 274.336C44.4651 271.967 44.8564 270.152 45.639 268.891C46.4216 267.63 47.5536 267 49.0349 267ZM45.9534 274.336C45.9534 276.026 46.1072 277.35 46.4146 278.306L51.0683 269.099C50.5791 268.448 49.9013 268.122 49.0349 268.122C48.0706 268.122 47.316 268.635 46.771 269.66C46.2259 270.672 45.9534 272.23 45.9534 274.336ZM49.0349 280.55C50.0131 280.55 50.7748 280.044 51.3198 279.033C51.8648 278.008 52.1373 276.442 52.1373 274.336C52.1373 272.549 51.9627 271.163 51.6133 270.18L46.9596 279.469C47.4627 280.19 48.1545 280.55 49.0349 280.55Z" fill="url(#paint0_linear_122_130)" fill-opacity="0.6"/>
<path d="M50.2926 304.135H53.3741V305.236H45.3874V304.135H48.9511V292.455L45.5551 294.471L44.9682 293.536L49.1607 290.959H50.2926V304.135Z" fill="url(#paint1_linear_122_130)" fill-opacity="0.6"/>
<path d="M49.0349 314.502C50.5302 314.502 51.6622 315.133 52.4308 316.393C53.2134 317.64 53.6047 319.455 53.6047 321.838C53.6047 324.221 53.2134 326.043 52.4308 327.304C51.6622 328.565 50.5302 329.195 49.0349 329.195C47.5536 329.195 46.4216 328.565 45.639 327.304C44.8564 326.043 44.4651 324.221 44.4651 321.838C44.4651 319.469 44.8564 317.654 45.639 316.393C46.4216 315.133 47.5536 314.502 49.0349 314.502ZM45.9534 321.838C45.9534 323.529 46.1072 324.852 46.4146 325.808L51.0683 316.601C50.5791 315.95 49.9013 315.624 49.0349 315.624C48.0706 315.624 47.316 316.137 46.771 317.162C46.2259 318.174 45.9534 319.732 45.9534 321.838ZM49.0349 328.052C50.0131 328.052 50.7748 327.546 51.3198 326.535C51.8648 325.51 52.1373 323.944 52.1373 321.838C52.1373 320.051 51.9627 318.665 51.6133 317.682L46.9596 326.971C47.4627 327.692 48.1545 328.052 49.0349 328.052Z" fill="url(#paint2_linear_122_130)" fill-opacity="0.6"/>
<path d="M50.2926 351.637H53.3741V352.738H45.3874V351.637H48.9511V339.957L45.5551 341.973L44.9682 341.038L49.1607 338.461H50.2926V351.637Z" fill="url(#paint3_linear_122_130)" fill-opacity="0.6"/>
<path d="M50.2926 375.388H53.3741V376.489H45.3874V375.388H48.9511V363.708L45.5551 365.724L44.9682 364.789L49.1607 362.212H50.2926V375.388Z" fill="url(#paint4_linear_122_130)" fill-opacity="0.6"/>
<path d="M49.0349 385.755C50.5302 385.755 51.6622 386.386 52.4308 387.646C53.2134 388.893 53.6047 390.708 53.6047 393.091C53.6047 395.474 53.2134 397.296 52.4308 398.557C51.6622 399.818 50.5302 400.448 49.0349 400.448C47.5536 400.448 46.4216 399.818 45.639 398.557C44.8564 397.296 44.4651 395.474 44.4651 393.091C44.4651 390.722 44.8564 388.907 45.639 387.646C46.4216 386.386 47.5536 385.755 49.0349 385.755ZM45.9534 393.091C45.9534 394.782 46.1072 396.105 46.4146 397.061L51.0683 387.854C50.5791 387.203 49.9013 386.878 49.0349 386.878C48.0706 386.878 47.316 387.39 46.771 388.415C46.2259 389.427 45.9534 390.985 45.9534 393.091ZM49.0349 399.305C50.0131 399.305 50.7748 398.8 51.3198 397.788C51.8648 396.763 52.1373 395.197 52.1373 393.091C52.1373 391.304 51.9627 389.919 51.6133 388.935L46.9596 398.225C47.4627 398.945 48.1545 399.305 49.0349 399.305Z" fill="url(#paint5_linear_122_130)" fill-opacity="0.6"/>
<path d="M50.2926 422.89H53.3741V423.992H45.3874V422.89H48.9511V411.21L45.5551 413.226L44.9682 412.291L49.1607 409.714H50.2926V422.89Z" fill="url(#paint6_linear_122_130)" fill-opacity="0.6"/>
<path d="M49.0349 433.257C50.5302 433.257 51.6622 433.888 52.4308 435.149C53.2134 436.396 53.6047 438.211 53.6047 440.594C53.6047 442.977 53.2134 444.798 52.4308 446.059C51.6622 447.32 50.5302 447.95 49.0349 447.95C47.5536 447.95 46.4216 447.32 45.639 446.059C44.8564 444.798 44.4651 442.977 44.4651 440.594C44.4651 438.224 44.8564 436.409 45.639 435.149C46.4216 433.888 47.5536 433.257 49.0349 433.257ZM45.9534 440.594C45.9534 442.284 46.1072 443.607 46.4146 444.563L51.0683 435.356C50.5791 434.705 49.9013 434.38 49.0349 434.38C48.0706 434.38 47.316 434.892 46.771 435.918C46.2259 436.929 45.9534 438.488 45.9534 440.594ZM49.0349 446.807C50.0131 446.807 50.7748 446.302 51.3198 445.29C51.8648 444.265 52.1373 442.699 52.1373 440.594C52.1373 438.806 51.9627 437.421 51.6133 436.437L46.9596 445.727C47.4627 446.447 48.1545 446.807 49.0349 446.807Z" fill="url(#paint7_linear_122_130)" fill-opacity="0.6"/>
<path d="M49.0349 457.008C50.5302 457.008 51.6622 457.639 52.4308 458.9C53.2134 460.147 53.6047 461.962 53.6047 464.345C53.6047 466.728 53.2134 468.549 52.4308 469.81C51.6622 471.071 50.5302 471.701 49.0349 471.701C47.5536 471.701 46.4216 471.071 45.639 469.81C44.8564 468.549 44.4651 466.728 44.4651 464.345C44.4651 461.975 44.8564 460.16 45.639 458.9C46.4216 457.639 47.5536 457.008 49.0349 457.008ZM45.9534 464.345C45.9534 466.035 46.1072 467.358 46.4146 468.314L51.0683 459.107C50.5791 458.456 49.9013 458.131 49.0349 458.131C48.0706 458.131 47.316 458.643 46.771 459.669C46.2259 460.68 45.9534 462.239 45.9534 464.345ZM49.0349 470.558C50.0131 470.558 50.7748 470.053 51.3198 469.041C51.8648 468.016 52.1373 466.451 52.1373 464.345C52.1373 462.557 51.9627 461.172 51.6133 460.188L46.9596 469.478C47.4627 470.198 48.1545 470.558 49.0349 470.558Z" fill="url(#paint8_linear_122_130)" fill-opacity="0.6"/>
<path d="M50.2926 494.143H53.3741V495.245H45.3874V494.143H48.9511V482.464L45.5551 484.48L44.9682 483.544L49.1607 480.967H50.2926V494.143Z" fill="url(#paint9_linear_122_130)" fill-opacity="0.6"/>
<path d="M49.0349 504.511C50.5302 504.511 51.6622 505.141 52.4308 506.402C53.2134 507.649 53.6047 509.464 53.6047 511.847C53.6047 514.23 53.2134 516.052 52.4308 517.312C51.6622 518.573 50.5302 519.204 49.0349 519.204C47.5536 519.204 46.4216 518.573 45.639 517.312C44.8564 516.052 44.4651 514.23 44.4651 511.847C44.4651 509.478 44.8564 507.663 45.639 506.402C46.4216 505.141 47.5536 504.511 49.0349 504.511ZM45.9534 511.847C45.9534 513.537 46.1072 514.86 46.4146 515.816L51.0683 506.61C50.5791 505.958 49.9013 505.633 49.0349 505.633C48.0706 505.633 47.316 506.145 46.771 507.171C46.2259 508.182 45.9534 509.741 45.9534 511.847ZM49.0349 518.061C50.0131 518.061 50.7748 517.555 51.3198 516.543C51.8648 515.518 52.1373 513.953 52.1373 511.847C52.1373 510.059 51.9627 508.674 51.6133 507.69L46.9596 516.98C47.4627 517.7 48.1545 518.061 49.0349 518.061Z" fill="url(#paint10_linear_122_130)" fill-opacity="0.6"/>
<path d="M50.2926 541.645H53.3741V542.747H45.3874V541.645H48.9511V529.966L45.5551 531.982L44.9682 531.046L49.1607 528.469H50.2926V541.645Z" fill="url(#paint11_linear_122_130)" fill-opacity="0.6"/>
<path d="M50.2926 565.396H53.3741V566.498H45.3874V565.396H48.9511V553.717L45.5551 555.733L44.9682 554.798L49.1607 552.221H50.2926V565.396Z" fill="url(#paint12_linear_122_130)" fill-opacity="0.6"/>
<path d="M87.9651 314.502C89.4604 314.502 90.5924 315.133 91.361 316.393C92.1436 317.64 92.5349 319.455 92.5349 321.838C92.5349 324.221 92.1436 326.043 91.361 327.304C90.5924 328.565 89.4604 329.195 87.9651 329.195C86.4838 329.195 85.3518 328.565 84.5692 327.304C83.7866 326.043 83.3953 324.221 83.3953 321.838C83.3953 319.469 83.7866 317.654 84.5692 316.393C85.3518 315.133 86.4838 314.502 87.9651 314.502ZM84.8836 321.838C84.8836 323.529 85.0374 324.852 85.3448 325.808L89.9985 316.601C89.5093 315.95 88.8315 315.624 87.9651 315.624C87.0008 315.624 86.2462 316.137 85.7012 317.162C85.1561 318.174 84.8836 319.732 84.8836 321.838ZM87.9651 328.052C88.9433 328.052 89.705 327.546 90.25 326.535C90.795 325.51 91.0675 323.944 91.0675 321.838C91.0675 320.051 90.8928 318.665 90.5435 317.682L85.8898 326.971C86.3929 327.692 87.0847 328.052 87.9651 328.052Z" fill="url(#paint13_linear_122_130)" fill-opacity="0.6"/>
<path d="M89.2228 351.637H92.3043V352.738H84.3176V351.637H87.8812V339.957L84.4853 341.973L83.8984 341.038L88.0909 338.461H89.2228V351.637Z" fill="url(#paint14_linear_122_130)" fill-opacity="0.6"/>
<path d="M87.9651 362.004C89.4604 362.004 90.5924 362.635 91.361 363.895C92.1436 365.142 92.5349 366.957 92.5349 369.34C92.5349 371.723 92.1436 373.545 91.361 374.806C90.5924 376.067 89.4604 376.697 87.9651 376.697C86.4838 376.697 85.3518 376.067 84.5692 374.806C83.7866 373.545 83.3953 371.723 83.3953 369.34C83.3953 366.971 83.7866 365.156 84.5692 363.895C85.3518 362.635 86.4838 362.004 87.9651 362.004ZM84.8836 369.34C84.8836 371.031 85.0374 372.354 85.3448 373.31L89.9985 364.103C89.5093 363.452 88.8315 363.126 87.9651 363.126C87.0008 363.126 86.2462 363.639 85.7012 364.664C85.1561 365.676 84.8836 367.234 84.8836 369.34ZM87.9651 375.554C88.9433 375.554 89.705 375.049 90.25 374.037C90.795 373.012 91.0675 371.446 91.0675 369.34C91.0675 367.553 90.8928 366.168 90.5435 365.184L85.8898 374.474C86.3929 375.194 87.0847 375.554 87.9651 375.554Z" fill="url(#paint15_linear_122_130)" fill-opacity="0.6"/>
<path d="M87.9651 385.755C89.4604 385.755 90.5924 386.386 91.361 387.646C92.1436 388.893 92.5349 390.708 92.5349 393.091C92.5349 395.474 92.1436 397.296 91.361 398.557C90.5924 399.818 89.4604 400.448 87.9651 400.448C86.4838 400.448 85.3518 399.818 84.5692 398.557C83.7866 397.296 83.3953 395.474 83.3953 393.091C83.3953 390.722 83.7866 388.907 84.5692 387.646C85.3518 386.386 86.4838 385.755 87.9651 385.755ZM84.8836 393.091C84.8836 394.782 85.0374 396.105 85.3448 397.061L89.9985 387.854C89.5093 387.203 88.8315 386.878 87.9651 386.878C87.0008 386.878 86.2462 387.39 85.7012 388.415C85.1561 389.427 84.8836 390.985 84.8836 393.091ZM87.9651 399.305C88.9433 399.305 89.705 398.8 90.25 397.788C90.795 396.763 91.0675 395.197 91.0675 393.091C91.0675 391.304 90.8928 389.919 90.5435 388.935L85.8898 398.225C86.3929 398.945 87.0847 399.305 87.9651 399.305Z" fill="url(#paint16_linear_122_130)" fill-opacity="0.6"/>
<path d="M89.2228 422.89H92.3043V423.992H84.3176V422.89H87.8812V411.21L84.4853 413.226L83.8984 412.291L88.0909 409.714H89.2228V422.89Z" fill="url(#paint17_linear_122_130)" fill-opacity="0.6"/>
<path d="M87.9651 433.257C89.4604 433.257 90.5924 433.888 91.361 435.149C92.1436 436.396 92.5349 438.211 92.5349 440.594C92.5349 442.977 92.1436 444.798 91.361 446.059C90.5924 447.32 89.4604 447.95 87.9651 447.95C86.4838 447.95 85.3518 447.32 84.5692 446.059C83.7866 444.798 83.3953 442.977 83.3953 440.594C83.3953 438.224 83.7866 436.409 84.5692 435.149C85.3518 433.888 86.4838 433.257 87.9651 433.257ZM84.8836 440.594C84.8836 442.284 85.0374 443.607 85.3448 444.563L89.9985 435.356C89.5093 434.705 88.8315 434.38 87.9651 434.38C87.0008 434.38 86.2462 434.892 85.7012 435.918C85.1561 436.929 84.8836 438.488 84.8836 440.594ZM87.9651 446.807C88.9433 446.807 89.705 446.302 90.25 445.29C90.795 444.265 91.0675 442.699 91.0675 440.594C91.0675 438.806 90.8928 437.421 90.5435 436.437L85.8898 445.727C86.3929 446.447 87.0847 446.807 87.9651 446.807Z" fill="url(#paint18_linear_122_130)" fill-opacity="0.6"/>
<path d="M89.2228 470.392H92.3043V471.494H84.3176V470.392H87.8812V458.713L84.4853 460.728L83.8984 459.793L88.0909 457.216H89.2228V470.392Z" fill="url(#paint19_linear_122_130)" fill-opacity="0.6"/>
<path d="M87.9651 480.76C89.4604 480.76 90.5924 481.39 91.361 482.651C92.1436 483.898 92.5349 485.713 92.5349 488.096C92.5349 490.479 92.1436 492.301 91.361 493.561C90.5924 494.822 89.4604 495.453 87.9651 495.453C86.4838 495.453 85.3518 494.822 84.5692 493.561C83.7866 492.301 83.3953 490.479 83.3953 488.096C83.3953 485.726 83.7866 483.911 84.5692 482.651C85.3518 481.39 86.4838 480.76 87.9651 480.76ZM84.8836 488.096C84.8836 489.786 85.0374 491.109 85.3448 492.065L89.9985 482.859C89.5093 482.207 88.8315 481.882 87.9651 481.882C87.0008 481.882 86.2462 482.394 85.7012 483.42C85.1561 484.431 84.8836 485.99 84.8836 488.096ZM87.9651 494.31C88.9433 494.31 89.705 493.804 90.25 492.792C90.795 491.767 91.0675 490.202 91.0675 488.096C91.0675 486.308 90.8928 484.923 90.5435 483.939L85.8898 493.229C86.3929 493.949 87.0847 494.31 87.9651 494.31Z" fill="url(#paint20_linear_122_130)" fill-opacity="0.6"/>
<path d="M87.9651 504.511C89.4604 504.511 90.5924 505.141 91.361 506.402C92.1436 507.649 92.5349 509.464 92.5349 511.847C92.5349 514.23 92.1436 516.052 91.361 517.312C90.5924 518.573 89.4604 519.204 87.9651 519.204C86.4838 519.204 85.3518 518.573 84.5692 517.312C83.7866 516.052 83.3953 514.23 83.3953 511.847C83.3953 509.478 83.7866 507.663 84.5692 506.402C85.3518 505.141 86.4838 504.511 87.9651 504.511ZM84.8836 511.847C84.8836 513.537 85.0374 514.86 85.3448 515.816L89.9985 506.61C89.5093 505.958 88.8315 505.633 87.9651 505.633C87.0008 505.633 86.2462 506.145 85.7012 507.171C85.1561 508.182 84.8836 509.741 84.8836 511.847ZM87.9651 518.061C88.9433 518.061 89.705 517.555 90.25 516.543C90.795 515.518 91.0675 513.953 91.0675 511.847C91.0675 510.059 90.8928 508.674 90.5435 507.69L85.8898 516.98C86.3929 517.7 87.0847 518.061 87.9651 518.061Z" fill="url(#paint21_linear_122_130)" fill-opacity="0.6"/>
<path d="M89.2228 541.645H92.3043V542.747H84.3176V541.645H87.8812V529.966L84.4853 531.982L83.8984 531.046L88.0909 528.469H89.2228V541.645Z" fill="url(#paint22_linear_122_130)" fill-opacity="0.6"/>
<path d="M87.9651 552.013C89.4604 552.013 90.5924 552.643 91.361 553.904C92.1436 555.151 92.5349 556.966 92.5349 559.349C92.5349 561.732 92.1436 563.554 91.361 564.815C90.5924 566.075 89.4604 566.706 87.9651 566.706C86.4838 566.706 85.3518 566.075 84.5692 564.815C83.7866 563.554 83.3953 561.732 83.3953 559.349C83.3953 556.98 83.7866 555.165 84.5692 553.904C85.3518 552.643 86.4838 552.013 87.9651 552.013ZM84.8836 559.349C84.8836 561.039 85.0374 562.362 85.3448 563.318L89.9985 554.112C89.5093 553.461 88.8315 553.135 87.9651 553.135C87.0008 553.135 86.2462 553.648 85.7012 554.673C85.1561 555.684 84.8836 557.243 84.8836 559.349ZM87.9651 565.563C88.9433 565.563 89.705 565.057 90.25 564.046C90.795 563.02 91.0675 561.455 91.0675 559.349C91.0675 557.562 90.8928 556.176 90.5435 555.192L85.8898 564.482C86.3929 565.202 87.0847 565.563 87.9651 565.563Z" fill="url(#paint23_linear_122_130)" fill-opacity="0.6"/>
<path d="M89.2228 589.148H92.3043V590.249H84.3176V589.148H87.8812V577.468L84.4853 579.484L83.8984 578.549L88.0909 575.972H89.2228V589.148Z" fill="url(#paint24_linear_122_130)" fill-opacity="0.6"/>
<path d="M89.2228 612.899H92.3043V614H84.3176V612.899H87.8812V601.219L84.4853 603.235L83.8984 602.3L88.0909 599.723H89.2228V612.899Z" fill="url(#paint25_linear_122_130)" fill-opacity="0.6"/>
<path d="M29.5698 338.253C31.0651 338.253 32.1971 338.884 32.9657 340.144C33.7483 341.391 34.1396 343.206 34.1396 345.589C34.1396 347.972 33.7483 349.794 32.9657 351.055C32.1971 352.316 31.0651 352.946 29.5698 352.946C28.0885 352.946 26.9565 352.316 26.1739 351.055C25.3913 349.794 25 347.972 25 345.589C25 343.22 25.3913 341.405 26.1739 340.144C26.9565 338.884 28.0885 338.253 29.5698 338.253ZM26.4883 345.589C26.4883 347.28 26.6421 348.603 26.9495 349.559L31.6032 340.352C31.114 339.701 30.4363 339.375 29.5698 339.375C28.6055 339.375 27.8509 339.888 27.3059 340.913C26.7608 341.925 26.4883 343.483 26.4883 345.589ZM29.5698 351.803C30.5481 351.803 31.3097 351.297 31.8547 350.286C32.3997 349.261 32.6722 347.695 32.6722 345.589C32.6722 343.802 32.4976 342.417 32.1482 341.433L27.4945 350.722C27.9976 351.443 28.6894 351.803 29.5698 351.803Z" fill="url(#paint26_linear_122_130)" fill-opacity="0.6"/>
<path d="M29.5698 362.004C31.0651 362.004 32.1971 362.635 32.9657 363.895C33.7483 365.142 34.1396 366.957 34.1396 369.34C34.1396 371.723 33.7483 373.545 32.9657 374.806C32.1971 376.067 31.0651 376.697 29.5698 376.697C28.0885 376.697 26.9565 376.067 26.1739 374.806C25.3913 373.545 25 371.723 25 369.34C25 366.971 25.3913 365.156 26.1739 363.895C26.9565 362.635 28.0885 362.004 29.5698 362.004ZM26.4883 369.34C26.4883 371.031 26.6421 372.354 26.9495 373.31L31.6032 364.103C31.114 363.452 30.4363 363.126 29.5698 363.126C28.6055 363.126 27.8509 363.639 27.3059 364.664C26.7608 365.676 26.4883 367.234 26.4883 369.34ZM29.5698 375.554C30.5481 375.554 31.3097 375.049 31.8547 374.037C32.3997 373.012 32.6722 371.446 32.6722 369.34C32.6722 367.553 32.4976 366.168 32.1482 365.184L27.4945 374.474C27.9976 375.194 28.6894 375.554 29.5698 375.554Z" fill="url(#paint27_linear_122_130)" fill-opacity="0.6"/>
<path d="M30.8276 399.139H33.909V400.24H25.9223V399.139H29.486V387.459L26.09 389.475L25.5031 388.54L29.6956 385.963H30.8276V399.139Z" fill="url(#paint28_linear_122_130)" fill-opacity="0.6"/>
<path d="M29.5698 409.506C31.0651 409.506 32.1971 410.137 32.9657 411.398C33.7483 412.644 34.1396 414.459 34.1396 416.842C34.1396 419.225 33.7483 421.047 32.9657 422.308C32.1971 423.569 31.0651 424.199 29.5698 424.199C28.0885 424.199 26.9565 423.569 26.1739 422.308C25.3913 421.047 25 419.225 25 416.842C25 414.473 25.3913 412.658 26.1739 411.398C26.9565 410.137 28.0885 409.506 29.5698 409.506ZM26.4883 416.842C26.4883 418.533 26.6421 419.856 26.9495 420.812L31.6032 411.605C31.114 410.954 30.4363 410.629 29.5698 410.629C28.6055 410.629 27.8509 411.141 27.3059 412.166C26.7608 413.178 26.4883 414.737 26.4883 416.842ZM29.5698 423.056C30.5481 423.056 31.3097 422.551 31.8547 421.539C32.3997 420.514 32.6722 418.948 32.6722 416.842C32.6722 415.055 32.4976 413.67 32.1482 412.686L27.4945 421.976C27.9976 422.696 28.6894 423.056 29.5698 423.056Z" fill="url(#paint29_linear_122_130)" fill-opacity="0.6"/>
<path d="M30.8276 446.641H33.909V447.743H25.9223V446.641H29.486V434.962L26.09 436.977L25.5031 436.042L29.6956 433.465H30.8276V446.641Z" fill="url(#paint30_linear_122_130)" fill-opacity="0.6"/>
<path d="M30.8276 470.392H33.909V471.494H25.9223V470.392H29.486V458.713L26.09 460.728L25.5031 459.793L29.6956 457.216H30.8276V470.392Z" fill="url(#paint31_linear_122_130)" fill-opacity="0.6"/>
<path d="M69.7577 304.135H72.8392V305.236H64.8525V304.135H68.4162V292.455L65.0202 294.471L64.4333 293.536L68.6258 290.959H69.7577V304.135Z" fill="url(#paint32_linear_122_130)" fill-opacity="0.6"/>
<path d="M68.5 314.502C69.9953 314.502 71.1273 315.133 71.8959 316.393C72.6785 317.64 73.0698 319.455 73.0698 321.838C73.0698 324.221 72.6785 326.043 71.8959 327.304C71.1273 328.565 69.9953 329.195 68.5 329.195C67.0187 329.195 65.8867 328.565 65.1041 327.304C64.3215 326.043 63.9302 324.221 63.9302 321.838C63.9302 319.469 64.3215 317.654 65.1041 316.393C65.8867 315.133 67.0187 314.502 68.5 314.502ZM65.4185 321.838C65.4185 323.529 65.5723 324.852 65.8797 325.808L70.5334 316.601C70.0442 315.95 69.3664 315.624 68.5 315.624C67.5357 315.624 66.7811 316.137 66.2361 317.162C65.691 318.174 65.4185 319.732 65.4185 321.838ZM68.5 328.052C69.4782 328.052 70.2399 327.546 70.7849 326.535C71.3299 325.51 71.6024 323.944 71.6024 321.838C71.6024 320.051 71.4277 318.665 71.0784 317.682L66.4247 326.971C66.9278 327.692 67.6196 328.052 68.5 328.052Z" fill="url(#paint33_linear_122_130)" fill-opacity="0.6"/>
<path d="M69.7577 351.637H72.8392V352.738H64.8525V351.637H68.4162V339.957L65.0202 341.973L64.4333 341.038L68.6258 338.461H69.7577V351.637Z" fill="url(#paint34_linear_122_130)" fill-opacity="0.6"/>
<path d="M69.7577 375.388H72.8392V376.489H64.8525V375.388H68.4162V363.708L65.0202 365.724L64.4333 364.789L68.6258 362.212H69.7577V375.388Z" fill="url(#paint35_linear_122_130)" fill-opacity="0.6"/>
<path d="M68.5 385.755C69.9953 385.755 71.1273 386.386 71.8959 387.646C72.6785 388.893 73.0698 390.708 73.0698 393.091C73.0698 395.474 72.6785 397.296 71.8959 398.557C71.1273 399.818 69.9953 400.448 68.5 400.448C67.0187 400.448 65.8867 399.818 65.1041 398.557C64.3215 397.296 63.9302 395.474 63.9302 393.091C63.9302 390.722 64.3215 388.907 65.1041 387.646C65.8867 386.386 67.0187 385.755 68.5 385.755ZM65.4185 393.091C65.4185 394.782 65.5723 396.105 65.8797 397.061L70.5334 387.854C70.0442 387.203 69.3664 386.878 68.5 386.878C67.5357 386.878 66.7811 387.39 66.2361 388.415C65.691 389.427 65.4185 390.985 65.4185 393.091ZM68.5 399.305C69.4782 399.305 70.2399 398.8 70.7849 397.788C71.3299 396.763 71.6024 395.197 71.6024 393.091C71.6024 391.304 71.4277 389.919 71.0784 388.935L66.4247 398.225C66.9278 398.945 67.6196 399.305 68.5 399.305Z" fill="url(#paint36_linear_122_130)" fill-opacity="0.6"/>
<path d="M69.7577 422.89H72.8392V423.992H64.8525V422.89H68.4162V411.21L65.0202 413.226L64.4333 412.291L68.6258 409.714H69.7577V422.89Z" fill="url(#paint37_linear_122_130)" fill-opacity="0.6"/>
<path d="M69.7577 446.641H72.8392V447.743H64.8525V446.641H68.4162V434.962L65.0202 436.977L64.4333 436.042L68.6258 433.465H69.7577V446.641Z" fill="url(#paint38_linear_122_130)" fill-opacity="0.6"/>
<path d="M68.5 457.008C69.9953 457.008 71.1273 457.639 71.8959 458.9C72.6785 460.147 73.0698 461.962 73.0698 464.345C73.0698 466.728 72.6785 468.549 71.8959 469.81C71.1273 471.071 69.9953 471.701 68.5 471.701C67.0187 471.701 65.8867 471.071 65.1041 469.81C64.3215 468.549 63.9302 466.728 63.9302 464.345C63.9302 461.975 64.3215 460.16 65.1041 458.9C65.8867 457.639 67.0187 457.008 68.5 457.008ZM65.4185 464.345C65.4185 466.035 65.5723 467.358 65.8797 468.314L70.5334 459.107C70.0442 458.456 69.3664 458.131 68.5 458.131C67.5357 458.131 66.7811 458.643 66.2361 459.669C65.691 460.68 65.4185 462.239 65.4185 464.345ZM68.5 470.558C69.4782 470.558 70.2399 470.053 70.7849 469.041C71.3299 468.016 71.6024 466.451 71.6024 464.345C71.6024 462.557 71.4277 461.172 71.0784 460.188L66.4247 469.478C66.9278 470.198 67.6196 470.558 68.5 470.558Z" fill="url(#paint39_linear_122_130)" fill-opacity="0.6"/>
<path d="M69.7577 494.143H72.8392V495.245H64.8525V494.143H68.4162V482.464L65.0202 484.48L64.4333 483.544L68.6258 480.967H69.7577V494.143Z" fill="url(#paint40_linear_122_130)" fill-opacity="0.6"/>
<path d="M68.5 504.511C69.9953 504.511 71.1273 505.141 71.8959 506.402C72.6785 507.649 73.0698 509.464 73.0698 511.847C73.0698 514.23 72.6785 516.052 71.8959 517.312C71.1273 518.573 69.9953 519.204 68.5 519.204C67.0187 519.204 65.8867 518.573 65.1041 517.312C64.3215 516.052 63.9302 514.23 63.9302 511.847C63.9302 509.478 64.3215 507.663 65.1041 506.402C65.8867 505.141 67.0187 504.511 68.5 504.511ZM65.4185 511.847C65.4185 513.537 65.5723 514.86 65.8797 515.816L70.5334 506.61C70.0442 505.958 69.3664 505.633 68.5 505.633C67.5357 505.633 66.7811 506.145 66.2361 507.171C65.691 508.182 65.4185 509.741 65.4185 511.847ZM68.5 518.061C69.4782 518.061 70.2399 517.555 70.7849 516.543C71.3299 515.518 71.6024 513.953 71.6024 511.847C71.6024 510.059 71.4277 508.674 71.0784 507.69L66.4247 516.98C66.9278 517.7 67.6196 518.061 68.5 518.061Z" fill="url(#paint41_linear_122_130)" fill-opacity="0.6"/>
<path d="M107.43 290.751C108.926 290.751 110.057 291.381 110.826 292.642C111.609 293.889 112 295.704 112 298.087C112 300.47 111.609 302.292 110.826 303.553C110.057 304.814 108.926 305.444 107.43 305.444C105.949 305.444 104.817 304.814 104.034 303.553C103.252 302.292 102.86 300.47 102.86 298.087C102.86 295.718 103.252 293.903 104.034 292.642C104.817 291.381 105.949 290.751 107.43 290.751ZM104.349 298.087C104.349 299.777 104.502 301.101 104.81 302.057L109.464 292.85C108.974 292.199 108.297 291.873 107.43 291.873C106.466 291.873 105.711 292.386 105.166 293.411C104.621 294.423 104.349 295.981 104.349 298.087ZM107.43 304.301C108.408 304.301 109.17 303.795 109.715 302.784C110.26 301.759 110.533 300.193 110.533 298.087C110.533 296.3 110.358 294.914 110.009 293.931L105.355 303.22C105.858 303.941 106.55 304.301 107.43 304.301Z" fill="url(#paint42_linear_122_130)" fill-opacity="0.6"/>
<path d="M108.688 327.886H111.769V328.987H103.783V327.886H107.346V316.206L103.95 318.222L103.363 317.287L107.556 314.71H108.688V327.886Z" fill="url(#paint43_linear_122_130)" fill-opacity="0.6"/>
<path d="M108.688 351.637H111.769V352.738H103.783V351.637H107.346V339.957L103.95 341.973L103.363 341.038L107.556 338.461H108.688V351.637Z" fill="url(#paint44_linear_122_130)" fill-opacity="0.6"/>
<path d="M107.43 362.004C108.926 362.004 110.057 362.635 110.826 363.895C111.609 365.142 112 366.957 112 369.34C112 371.723 111.609 373.545 110.826 374.806C110.057 376.067 108.926 376.697 107.43 376.697C105.949 376.697 104.817 376.067 104.034 374.806C103.252 373.545 102.86 371.723 102.86 369.34C102.86 366.971 103.252 365.156 104.034 363.895C104.817 362.635 105.949 362.004 107.43 362.004ZM104.349 369.34C104.349 371.031 104.502 372.354 104.81 373.31L109.464 364.103C108.974 363.452 108.297 363.126 107.43 363.126C106.466 363.126 105.711 363.639 105.166 364.664C104.621 365.676 104.349 367.234 104.349 369.34ZM107.43 375.554C108.408 375.554 109.17 375.049 109.715 374.037C110.26 373.012 110.533 371.446 110.533 369.34C110.533 367.553 110.358 366.168 110.009 365.184L105.355 374.474C105.858 375.194 106.55 375.554 107.43 375.554Z" fill="url(#paint45_linear_122_130)" fill-opacity="0.6"/>
<path d="M107.43 385.755C108.926 385.755 110.057 386.386 110.826 387.646C111.609 388.893 112 390.708 112 393.091C112 395.474 111.609 397.296 110.826 398.557C110.057 399.818 108.926 400.448 107.43 400.448C105.949 400.448 104.817 399.818 104.034 398.557C103.252 397.296 102.86 395.474 102.86 393.091C102.86 390.722 103.252 388.907 104.034 387.646C104.817 386.386 105.949 385.755 107.43 385.755ZM104.349 393.091C104.349 394.782 104.502 396.105 104.81 397.061L109.464 387.854C108.974 387.203 108.297 386.878 107.43 386.878C106.466 386.878 105.711 387.39 105.166 388.415C104.621 389.427 104.349 390.985 104.349 393.091ZM107.43 399.305C108.408 399.305 109.17 398.8 109.715 397.788C110.26 396.763 110.533 395.197 110.533 393.091C110.533 391.304 110.358 389.919 110.009 388.935L105.355 398.225C105.858 398.945 106.55 399.305 107.43 399.305Z" fill="url(#paint46_linear_122_130)" fill-opacity="0.6"/>
<g opacity="0.6">
<path d="M935.93 -33C937.356 -33 938.436 -32.395 939.17 -31.1851C939.916 -29.9885 940.29 -28.2468 940.29 -25.9599C940.29 -23.673 939.916 -21.9246 939.17 -20.7147C938.436 -19.5048 937.356 -18.8998 935.93 -18.8998C934.517 -18.8998 933.437 -19.5048 932.69 -20.7147C931.943 -21.9246 931.57 -23.673 931.57 -25.9599C931.57 -28.2335 931.943 -29.9752 932.69 -31.1851C933.437 -32.395 934.517 -33 935.93 -33ZM932.99 -25.9599C932.99 -24.3378 933.137 -23.068 933.43 -22.1506L937.87 -30.9857C937.403 -31.6106 936.756 -31.923 935.93 -31.923C935.01 -31.923 934.29 -31.4311 933.77 -30.4472C933.25 -29.4766 932.99 -27.9808 932.99 -25.9599ZM935.93 -19.9967C936.863 -19.9967 937.59 -20.482 938.11 -21.4526C938.63 -22.4365 938.89 -23.9389 938.89 -25.9599C938.89 -27.675 938.723 -29.0046 938.39 -29.9486L933.95 -21.0338C934.43 -20.3424 935.09 -19.9967 935.93 -19.9967Z" fill="url(#paint47_linear_122_130)"/>
<path d="M937.13 2.63655H940.07V3.69356H932.45V2.63655H935.85V-8.57181L932.61 -6.63727L932.05 -7.53474L936.05 -10.0078H937.13V2.63655Z" fill="url(#paint48_linear_122_130)"/>
<path d="M935.93 12.5856C937.356 12.5856 938.436 13.1906 939.17 14.4005C939.916 15.5971 940.29 17.3389 940.29 19.6257C940.29 21.9126 939.916 23.661 939.17 24.8709C938.436 26.0808 937.356 26.6858 935.93 26.6858C934.517 26.6858 933.437 26.0808 932.69 24.8709C931.943 23.661 931.57 21.9126 931.57 19.6257C931.57 17.3522 931.943 15.6104 932.69 14.4005C933.437 13.1906 934.517 12.5856 935.93 12.5856ZM932.99 19.6257C932.99 21.2478 933.137 22.5176 933.43 23.435L937.87 14.5999C937.403 13.975 936.756 13.6626 935.93 13.6626C935.01 13.6626 934.29 14.1545 933.77 15.1384C933.25 16.109 932.99 17.6048 932.99 19.6257ZM935.93 25.5889C936.863 25.5889 937.59 25.1036 938.11 24.133C938.63 23.1491 938.89 21.6467 938.89 19.6257C938.89 17.9106 938.723 16.581 938.39 15.637L933.95 24.5518C934.43 25.2432 935.09 25.5889 935.93 25.5889Z" fill="url(#paint49_linear_122_130)"/>
<path d="M937.13 48.2221H940.07V49.2792H932.45V48.2221H935.85V37.0138L932.61 38.9483L932.05 38.0509L936.05 35.5778H937.13V48.2221Z" fill="url(#paint50_linear_122_130)"/>
<path d="M937.13 71.015H940.07V72.072H932.45V71.015H935.85V59.8066L932.61 61.7411L932.05 60.8437L936.05 58.3706H937.13V71.015Z" fill="url(#paint51_linear_122_130)"/>
<path d="M935.93 80.964C937.356 80.964 938.436 81.569 939.17 82.7789C939.916 83.9755 940.29 85.7173 940.29 88.0041C940.29 90.291 939.916 92.0394 939.17 93.2493C938.436 94.4593 937.356 95.0642 935.93 95.0642C934.517 95.0642 933.437 94.4593 932.69 93.2493C931.943 92.0394 931.57 90.291 931.57 88.0041C931.57 85.7306 931.943 83.9888 932.69 82.7789C933.437 81.569 934.517 80.964 935.93 80.964ZM932.99 88.0041C932.99 89.6262 933.137 90.896 933.43 91.8134L937.87 82.9783C937.403 82.3534 936.756 82.041 935.93 82.041C935.01 82.041 934.29 82.5329 933.77 83.5168C933.25 84.4874 932.99 85.9832 932.99 88.0041ZM935.93 93.9673C936.863 93.9673 937.59 93.482 938.11 92.5114C938.63 91.5275 938.89 90.0251 938.89 88.0041C938.89 86.289 938.723 84.9594 938.39 84.0154L933.95 92.9302C934.43 93.6216 935.09 93.9673 935.93 93.9673Z" fill="url(#paint52_linear_122_130)"/>
<path d="M937.13 116.601H940.07V117.658H932.45V116.601H935.85V105.392L932.61 107.327L932.05 106.429L936.05 103.956H937.13V116.601Z" fill="url(#paint53_linear_122_130)"/>
<path d="M935.93 126.55C937.356 126.55 938.436 127.155 939.17 128.365C939.916 129.561 940.29 131.303 940.29 133.59C940.29 135.877 939.916 137.625 939.17 138.835C938.436 140.045 937.356 140.65 935.93 140.65C934.517 140.65 933.437 140.045 932.69 138.835C931.943 137.625 931.57 135.877 931.57 133.59C931.57 131.316 931.943 129.574 932.69 128.365C933.437 127.155 934.517 126.55 935.93 126.55ZM932.99 133.59C932.99 135.212 933.137 136.482 933.43 137.399L937.87 128.564C937.403 127.939 936.756 127.627 935.93 127.627C935.01 127.627 934.29 128.119 933.77 129.102C933.25 130.073 932.99 131.569 932.99 133.59ZM935.93 139.553C936.863 139.553 937.59 139.068 938.11 138.097C938.63 137.113 938.89 135.611 938.89 133.59C938.89 131.875 938.723 130.545 938.39 129.601L933.95 138.516C934.43 139.207 935.09 139.553 935.93 139.553Z" fill="url(#paint54_linear_122_130)"/>
<path d="M935.93 149.342C937.356 149.342 938.436 149.947 939.17 151.157C939.916 152.354 940.29 154.096 940.29 156.383C940.29 158.669 939.916 160.418 939.17 161.628C938.436 162.838 937.356 163.443 935.93 163.443C934.517 163.443 933.437 162.838 932.69 161.628C931.943 160.418 931.57 158.669 931.57 156.383C931.57 154.109 931.943 152.367 932.69 151.157C933.437 149.947 934.517 149.342 935.93 149.342ZM932.99 156.383C932.99 158.005 933.137 159.274 933.43 160.192L937.87 151.357C937.403 150.732 936.756 150.419 935.93 150.419C935.01 150.419 934.29 150.911 933.77 151.895C933.25 152.866 932.99 154.362 932.99 156.383ZM935.93 162.346C936.863 162.346 937.59 161.86 938.11 160.89C938.63 159.906 938.89 158.404 938.89 156.383C938.89 154.667 938.723 153.338 938.39 152.394L933.95 161.309C934.43 162 935.09 162.346 935.93 162.346Z" fill="url(#paint55_linear_122_130)"/>
<path d="M937.13 184.979H940.07V186.036H932.45V184.979H935.85V173.771L932.61 175.705L932.05 174.808L936.05 172.335H937.13V184.979Z" fill="url(#paint56_linear_122_130)"/>
<path d="M935.93 194.928C937.356 194.928 938.436 195.533 939.17 196.743C939.916 197.94 940.29 199.681 940.29 201.968C940.29 204.255 939.916 206.003 939.17 207.213C938.436 208.423 937.356 209.028 935.93 209.028C934.517 209.028 933.437 208.423 932.69 207.213C931.943 206.003 931.57 204.255 931.57 201.968C931.57 199.695 931.943 197.953 932.69 196.743C933.437 195.533 934.517 194.928 935.93 194.928ZM932.99 201.968C932.99 203.59 933.137 204.86 933.43 205.777L937.87 196.942C937.403 196.317 936.756 196.005 935.93 196.005C935.01 196.005 934.29 196.497 933.77 197.481C933.25 198.451 932.99 199.947 932.99 201.968ZM935.93 207.931C936.863 207.931 937.59 207.446 938.11 206.475C938.63 205.492 938.89 203.989 938.89 201.968C938.89 200.253 938.723 198.923 938.39 197.979L933.95 206.894C934.43 207.586 935.09 207.931 935.93 207.931Z" fill="url(#paint57_linear_122_130)"/>
<path d="M937.13 230.565H940.07V231.622H932.45V230.565H935.85V219.356L932.61 221.291L932.05 220.393L936.05 217.92H937.13V230.565Z" fill="url(#paint58_linear_122_130)"/>
<path d="M937.13 253.357H940.07V254.414H932.45V253.357H935.85V242.149L932.61 244.084L932.05 243.186L936.05 240.713H937.13V253.357Z" fill="url(#paint59_linear_122_130)"/>
<path d="M973.07 12.5856C974.497 12.5856 975.577 13.1906 976.31 14.4005C977.057 15.5971 977.43 17.3389 977.43 19.6257C977.43 21.9126 977.057 23.661 976.31 24.8709C975.577 26.0808 974.497 26.6858 973.07 26.6858C971.657 26.6858 970.577 26.0808 969.83 24.8709C969.084 23.661 968.71 21.9126 968.71 19.6257C968.71 17.3522 969.084 15.6104 969.83 14.4005C970.577 13.1906 971.657 12.5856 973.07 12.5856ZM970.13 19.6257C970.13 21.2478 970.277 22.5176 970.57 23.435L975.01 14.5999C974.543 13.975 973.897 13.6626 973.07 13.6626C972.15 13.6626 971.43 14.1545 970.91 15.1384C970.39 16.109 970.13 17.6048 970.13 19.6257ZM973.07 25.5889C974.003 25.5889 974.73 25.1036 975.25 24.133C975.77 23.1491 976.03 21.6467 976.03 19.6257C976.03 17.9106 975.863 16.581 975.53 15.637L971.09 24.5518C971.57 25.2432 972.23 25.5889 973.07 25.5889Z" fill="url(#paint60_linear_122_130)"/>
<path d="M974.27 48.2221H977.21V49.2792H969.59V48.2221H972.99V37.0138L969.75 38.9483L969.19 38.0509L973.19 35.5778H974.27V48.2221Z" fill="url(#paint61_linear_122_130)"/>
<path d="M973.07 58.1712C974.497 58.1712 975.577 58.7762 976.31 59.9861C977.057 61.1827 977.43 62.9245 977.43 65.2113C977.43 67.4982 977.057 69.2466 976.31 70.4565C975.577 71.6664 974.497 72.2714 973.07 72.2714C971.657 72.2714 970.577 71.6664 969.83 70.4565C969.084 69.2466 968.71 67.4982 968.71 65.2113C968.71 62.9378 969.084 61.196 969.83 59.9861C970.577 58.7762 971.657 58.1712 973.07 58.1712ZM970.13 65.2113C970.13 66.8334 970.277 68.1032 970.57 69.0206L975.01 60.1855C974.543 59.5606 973.897 59.2482 973.07 59.2482C972.15 59.2482 971.43 59.7401 970.91 60.724C970.39 61.6946 970.13 63.1904 970.13 65.2113ZM973.07 71.1745C974.003 71.1745 974.73 70.6892 975.25 69.7186C975.77 68.7347 976.03 67.2323 976.03 65.2113C976.03 63.4962 975.863 62.1666 975.53 61.2226L971.09 70.1374C971.57 70.8288 972.23 71.1745 973.07 71.1745Z" fill="url(#paint62_linear_122_130)"/>
<path d="M973.07 80.964C974.497 80.964 975.577 81.569 976.31 82.7789C977.057 83.9755 977.43 85.7173 977.43 88.0041C977.43 90.291 977.057 92.0394 976.31 93.2493C975.577 94.4593 974.497 95.0642 973.07 95.0642C971.657 95.0642 970.577 94.4593 969.83 93.2493C969.084 92.0394 968.71 90.291 968.71 88.0041C968.71 85.7306 969.084 83.9888 969.83 82.7789C970.577 81.569 971.657 80.964 973.07 80.964ZM970.13 88.0041C970.13 89.6262 970.277 90.896 970.57 91.8134L975.01 82.9783C974.543 82.3534 973.897 82.041 973.07 82.041C972.15 82.041 971.43 82.5329 970.91 83.5168C970.39 84.4874 970.13 85.9832 970.13 88.0041ZM973.07 93.9673C974.003 93.9673 974.73 93.482 975.25 92.5114C975.77 91.5275 976.03 90.0251 976.03 88.0041C976.03 86.289 975.863 84.9594 975.53 84.0154L971.09 92.9302C971.57 93.6216 972.23 93.9673 973.07 93.9673Z" fill="url(#paint63_linear_122_130)"/>
<path d="M974.27 116.601H977.21V117.658H969.59V116.601H972.99V105.392L969.75 107.327L969.19 106.429L973.19 103.956H974.27V116.601Z" fill="url(#paint64_linear_122_130)"/>
<path d="M973.07 126.55C974.497 126.55 975.577 127.155 976.31 128.365C977.057 129.561 977.43 131.303 977.43 133.59C977.43 135.877 977.057 137.625 976.31 138.835C975.577 140.045 974.497 140.65 973.07 140.65C971.657 140.65 970.577 140.045 969.83 138.835C969.084 137.625 968.71 135.877 968.71 133.59C968.71 131.316 969.084 129.574 969.83 128.365C970.577 127.155 971.657 126.55 973.07 126.55ZM970.13 133.59C970.13 135.212 970.277 136.482 970.57 137.399L975.01 128.564C974.543 127.939 973.897 127.627 973.07 127.627C972.15 127.627 971.43 128.119 970.91 129.102C970.39 130.073 970.13 131.569 970.13 133.59ZM973.07 139.553C974.003 139.553 974.73 139.068 975.25 138.097C975.77 137.113 976.03 135.611 976.03 133.59C976.03 131.875 975.863 130.545 975.53 129.601L971.09 138.516C971.57 139.207 972.23 139.553 973.07 139.553Z" fill="url(#paint65_linear_122_130)"/>
<path d="M974.27 162.186H977.21V163.243H969.59V162.186H972.99V150.978L969.75 152.912L969.19 152.015L973.19 149.542H974.27V162.186Z" fill="url(#paint66_linear_122_130)"/>
<path d="M973.07 172.135C974.497 172.135 975.577 172.74 976.31 173.95C977.057 175.147 977.43 176.888 977.43 179.175C977.43 181.462 977.057 183.211 976.31 184.421C975.577 185.63 974.497 186.235 973.07 186.235C971.657 186.235 970.577 185.63 969.83 184.421C969.084 183.211 968.71 181.462 968.71 179.175C968.71 176.902 969.084 175.16 969.83 173.95C970.577 172.74 971.657 172.135 973.07 172.135ZM970.13 179.175C970.13 180.797 970.277 182.067 970.57 182.985L975.01 174.15C974.543 173.525 973.897 173.212 973.07 173.212C972.15 173.212 971.43 173.704 970.91 174.688C970.39 175.659 970.13 177.154 970.13 179.175ZM973.07 185.139C974.003 185.139 974.73 184.653 975.25 183.683C975.77 182.699 976.03 181.196 976.03 179.175C976.03 177.46 975.863 176.131 975.53 175.187L971.09 184.101C971.57 184.793 972.23 185.139 973.07 185.139Z" fill="url(#paint67_linear_122_130)"/>
<path d="M973.07 194.928C974.497 194.928 975.577 195.533 976.31 196.743C977.057 197.94 977.43 199.681 977.43 201.968C977.43 204.255 977.057 206.003 976.31 207.213C975.577 208.423 974.497 209.028 973.07 209.028C971.657 209.028 970.577 208.423 969.83 207.213C969.084 206.003 968.71 204.255 968.71 201.968C968.71 199.695 969.084 197.953 969.83 196.743C970.577 195.533 971.657 194.928 973.07 194.928ZM970.13 201.968C970.13 203.59 970.277 204.86 970.57 205.777L975.01 196.942C974.543 196.317 973.897 196.005 973.07 196.005C972.15 196.005 971.43 196.497 970.91 197.481C970.39 198.451 970.13 199.947 970.13 201.968ZM973.07 207.931C974.003 207.931 974.73 207.446 975.25 206.475C975.77 205.492 976.03 203.989 976.03 201.968C976.03 200.253 975.863 198.923 975.53 197.979L971.09 206.894C971.57 207.586 972.23 207.931 973.07 207.931Z" fill="url(#paint68_linear_122_130)"/>
<path d="M974.27 230.565H977.21V231.622H969.59V230.565H972.99V219.356L969.75 221.291L969.19 220.393L973.19 217.92H974.27V230.565Z" fill="url(#paint69_linear_122_130)"/>
<path d="M973.07 240.514C974.497 240.514 975.577 241.119 976.31 242.329C977.057 243.525 977.43 245.267 977.43 247.554C977.43 249.841 977.057 251.589 976.31 252.799C975.577 254.009 974.497 254.614 973.07 254.614C971.657 254.614 970.577 254.009 969.83 252.799C969.084 251.589 968.71 249.841 968.71 247.554C968.71 245.28 969.084 243.538 969.83 242.329C970.577 241.119 971.657 240.514 973.07 240.514ZM970.13 247.554C970.13 249.176 970.277 250.446 970.57 251.363L975.01 242.528C974.543 241.903 973.897 241.591 973.07 241.591C972.15 241.591 971.43 242.083 970.91 243.066C970.39 244.037 970.13 245.533 970.13 247.554ZM973.07 253.517C974.003 253.517 974.73 253.032 975.25 252.061C975.77 251.077 976.03 249.575 976.03 247.554C976.03 245.839 975.863 244.509 975.53 243.565L971.09 252.48C971.57 253.171 972.23 253.517 973.07 253.517Z" fill="url(#paint70_linear_122_130)"/>
<path d="M974.27 276.15H977.21V277.207H969.59V276.15H972.99V264.942L969.75 266.876L969.19 265.979L973.19 263.506H974.27V276.15Z" fill="url(#paint71_linear_122_130)"/>
<path d="M974.27 298.943H977.21V300H969.59V298.943H972.99V287.735L969.75 289.669L969.19 288.772L973.19 286.299H974.27V298.943Z" fill="url(#paint72_linear_122_130)"/>
<path d="M917.36 35.3784C918.786 35.3784 919.866 35.9834 920.599 37.1933C921.346 38.3899 921.719 40.1317 921.719 42.4185C921.719 44.7054 921.346 46.4538 920.599 47.6637C919.866 48.8736 918.786 49.4786 917.36 49.4786C915.946 49.4786 914.867 48.8736 914.12 47.6637C913.373 46.4538 913 44.7054 913 42.4185C913 40.145 913.373 38.4032 914.12 37.1933C914.867 35.9834 915.946 35.3784 917.36 35.3784ZM914.42 42.4185C914.42 44.0406 914.567 45.3104 914.86 46.2278L919.3 37.3927C918.833 36.7678 918.186 36.4554 917.36 36.4554C916.44 36.4554 915.72 36.9473 915.2 37.9312C914.68 38.9018 914.42 40.3976 914.42 42.4185ZM917.36 48.3817C918.293 48.3817 919.02 47.8964 919.54 46.9258C920.06 45.9419 920.319 44.4395 920.319 42.4185C920.319 40.7034 920.153 39.3738 919.82 38.4298L915.38 47.3446C915.86 48.036 916.52 48.3817 917.36 48.3817Z" fill="url(#paint73_linear_122_130)"/>
<path d="M917.36 58.1712C918.786 58.1712 919.866 58.7762 920.599 59.9861C921.346 61.1827 921.719 62.9245 921.719 65.2113C921.719 67.4982 921.346 69.2466 920.599 70.4565C919.866 71.6664 918.786 72.2714 917.36 72.2714C915.946 72.2714 914.867 71.6664 914.12 70.4565C913.373 69.2466 913 67.4982 913 65.2113C913 62.9378 913.373 61.196 914.12 59.9861C914.867 58.7762 915.946 58.1712 917.36 58.1712ZM914.42 65.2113C914.42 66.8334 914.567 68.1032 914.86 69.0206L919.3 60.1855C918.833 59.5606 918.186 59.2482 917.36 59.2482C916.44 59.2482 915.72 59.7401 915.2 60.724C914.68 61.6946 914.42 63.1904 914.42 65.2113ZM917.36 71.1745C918.293 71.1745 919.02 70.6892 919.54 69.7186C920.06 68.7347 920.319 67.2323 920.319 65.2113C920.319 63.4962 920.153 62.1666 919.82 61.2226L915.38 70.1374C915.86 70.8288 916.52 71.1745 917.36 71.1745Z" fill="url(#paint74_linear_122_130)"/>
<path d="M918.56 93.8078H921.499V94.8648H913.88V93.8078H917.28V82.5994L914.04 84.5339L913.48 83.6365L917.48 81.1635H918.56V93.8078Z" fill="url(#paint75_linear_122_130)"/>
<path d="M917.36 103.757C918.786 103.757 919.866 104.362 920.599 105.572C921.346 106.768 921.719 108.51 921.719 110.797C921.719 113.084 921.346 114.832 920.599 116.042C919.866 117.252 918.786 117.857 917.36 117.857C915.946 117.857 914.867 117.252 914.12 116.042C913.373 114.832 913 113.084 913 110.797C913 108.523 913.373 106.782 914.12 105.572C914.867 104.362 915.946 103.757 917.36 103.757ZM914.42 110.797C914.42 112.419 914.567 113.689 914.86 114.606L919.3 105.771C918.833 105.146 918.186 104.834 917.36 104.834C916.44 104.834 915.72 105.326 915.2 106.31C914.68 107.28 914.42 108.776 914.42 110.797ZM917.36 116.76C918.293 116.76 919.02 116.275 919.54 115.304C920.06 114.32 920.319 112.818 920.319 110.797C920.319 109.082 920.153 107.752 919.82 106.808L915.38 115.723C915.86 116.414 916.52 116.76 917.36 116.76Z" fill="url(#paint76_linear_122_130)"/>
<path d="M918.56 139.393H921.499V140.45H913.88V139.393H917.28V128.185L914.04 130.12L913.48 129.222L917.48 126.749H918.56V139.393Z" fill="url(#paint77_linear_122_130)"/>
<path d="M918.56 162.186H921.499V163.243H913.88V162.186H917.28V150.978L914.04 152.912L913.48 152.015L917.48 149.542H918.56V162.186Z" fill="url(#paint78_linear_122_130)"/>
<path d="M955.7 2.63655H958.64V3.69356H951.02V2.63655H954.42V-8.57181L951.18 -6.63727L950.62 -7.53474L954.62 -10.0078H955.7V2.63655Z" fill="url(#paint79_linear_122_130)"/>
<path d="M954.5 12.5856C955.927 12.5856 957.006 13.1906 957.74 14.4005C958.486 15.5971 958.86 17.3389 958.86 19.6257C958.86 21.9126 958.486 23.661 957.74 24.8709C957.006 26.0808 955.927 26.6858 954.5 26.6858C953.087 26.6858 952.007 26.0808 951.26 24.8709C950.514 23.661 950.14 21.9126 950.14 19.6257C950.14 17.3522 950.514 15.6104 951.26 14.4005C952.007 13.1906 953.087 12.5856 954.5 12.5856ZM951.56 19.6257C951.56 21.2478 951.707 22.5176 952 23.435L956.44 14.5999C955.973 13.975 955.327 13.6626 954.5 13.6626C953.58 13.6626 952.86 14.1545 952.34 15.1384C951.82 16.109 951.56 17.6048 951.56 19.6257ZM954.5 25.5889C955.433 25.5889 956.16 25.1036 956.68 24.133C957.2 23.1491 957.46 21.6467 957.46 19.6257C957.46 17.9106 957.293 16.581 956.96 15.637L952.52 24.5518C953 25.2432 953.66 25.5889 954.5 25.5889Z" fill="url(#paint80_linear_122_130)"/>
<path d="M955.7 48.2221H958.64V49.2792H951.02V48.2221H954.42V37.0138L951.18 38.9483L950.62 38.0509L954.62 35.5778H955.7V48.2221Z" fill="url(#paint81_linear_122_130)"/>
<path d="M955.7 71.015H958.64V72.072H951.02V71.015H954.42V59.8066L951.18 61.7411L950.62 60.8437L954.62 58.3706H955.7V71.015Z" fill="url(#paint82_linear_122_130)"/>
<path d="M954.5 80.964C955.927 80.964 957.006 81.569 957.74 82.7789C958.486 83.9755 958.86 85.7173 958.86 88.0041C958.86 90.291 958.486 92.0394 957.74 93.2493C957.006 94.4593 955.927 95.0642 954.5 95.0642C953.087 95.0642 952.007 94.4593 951.26 93.2493C950.514 92.0394 950.14 90.291 950.14 88.0041C950.14 85.7306 950.514 83.9888 951.26 82.7789C952.007 81.569 953.087 80.964 954.5 80.964ZM951.56 88.0041C951.56 89.6262 951.707 90.896 952 91.8134L956.44 82.9783C955.973 82.3534 955.327 82.041 954.5 82.041C953.58 82.041 952.86 82.5329 952.34 83.5168C951.82 84.4874 951.56 85.9832 951.56 88.0041ZM954.5 93.9673C955.433 93.9673 956.16 93.482 956.68 92.5114C957.2 91.5275 957.46 90.0251 957.46 88.0041C957.46 86.289 957.293 84.9594 956.96 84.0154L952.52 92.9302C953 93.6216 953.66 93.9673 954.5 93.9673Z" fill="url(#paint83_linear_122_130)"/>
<path d="M955.7 116.601H958.64V117.658H951.02V116.601H954.42V105.392L951.18 107.327L950.62 106.429L954.62 103.956H955.7V116.601Z" fill="url(#paint84_linear_122_130)"/>
<path d="M955.7 139.393H958.64V140.45H951.02V139.393H954.42V128.185L951.18 130.12L950.62 129.222L954.62 126.749H955.7V139.393Z" fill="url(#paint85_linear_122_130)"/>
<path d="M954.5 149.342C955.927 149.342 957.006 149.947 957.74 151.157C958.486 152.354 958.86 154.096 958.86 156.383C958.86 158.669 958.486 160.418 957.74 161.628C957.006 162.838 955.927 163.443 954.5 163.443C953.087 163.443 952.007 162.838 951.26 161.628C950.514 160.418 950.14 158.669 950.14 156.383C950.14 154.109 950.514 152.367 951.26 151.157C952.007 149.947 953.087 149.342 954.5 149.342ZM951.56 156.383C951.56 158.005 951.707 159.274 952 160.192L956.44 151.357C955.973 150.732 955.327 150.419 954.5 150.419C953.58 150.419 952.86 150.911 952.34 151.895C951.82 152.866 951.56 154.362 951.56 156.383ZM954.5 162.346C955.433 162.346 956.16 161.86 956.68 160.89C957.2 159.906 957.46 158.404 957.46 156.383C957.46 154.667 957.293 153.338 956.96 152.394L952.52 161.309C953 162 953.66 162.346 954.5 162.346Z" fill="url(#paint86_linear_122_130)"/>
<path d="M955.7 184.979H958.64V186.036H951.02V184.979H954.42V173.771L951.18 175.705L950.62 174.808L954.62 172.335H955.7V184.979Z" fill="url(#paint87_linear_122_130)"/>
<path d="M954.5 194.928C955.927 194.928 957.006 195.533 957.74 196.743C958.486 197.94 958.86 199.681 958.86 201.968C958.86 204.255 958.486 206.003 957.74 207.213C957.006 208.423 955.927 209.028 954.5 209.028C953.087 209.028 952.007 208.423 951.26 207.213C950.514 206.003 950.14 204.255 950.14 201.968C950.14 199.695 950.514 197.953 951.26 196.743C952.007 195.533 953.087 194.928 954.5 194.928ZM951.56 201.968C951.56 203.59 951.707 204.86 952 205.777L956.44 196.942C955.973 196.317 955.327 196.005 954.5 196.005C953.58 196.005 952.86 196.497 952.34 197.481C951.82 198.451 951.56 199.947 951.56 201.968ZM954.5 207.931C955.433 207.931 956.16 207.446 956.68 206.475C957.2 205.492 957.46 203.989 957.46 201.968C957.46 200.253 957.293 198.923 956.96 197.979L952.52 206.894C953 207.586 953.66 207.931 954.5 207.931Z" fill="url(#paint88_linear_122_130)"/>
<path d="M991.64 -10.2072C993.067 -10.2072 994.147 -9.60224 994.88 -8.39232C995.627 -7.1957 996 -5.45395 996 -3.16707C996 -0.880194 995.627 0.868206 994.88 2.07812C994.147 3.28804 993.067 3.893 991.64 3.893C990.227 3.893 989.147 3.28804 988.401 2.07812C987.654 0.868206 987.281 -0.880194 987.281 -3.16707C987.281 -5.44065 987.654 -7.1824 988.401 -8.39232C989.147 -9.60224 990.227 -10.2072 991.64 -10.2072ZM988.7 -3.16707C988.7 -1.54498 988.847 -0.275231 989.14 0.642179L993.58 -8.19288C993.114 -8.81779 992.467 -9.13024 991.64 -9.13024C990.72 -9.13024 990 -8.63829 989.48 -7.6544C988.96 -6.68381 988.7 -5.18803 988.7 -3.16707ZM991.64 2.7961C992.574 2.7961 993.3 2.3108 993.82 1.34021C994.34 0.356319 994.6 -1.14611 994.6 -3.16707C994.6 -4.88223 994.433 -6.21181 994.1 -7.15581L989.66 1.75902C990.14 2.4504 990.8 2.7961 991.64 2.7961Z" fill="url(#paint89_linear_122_130)"/>
<path d="M992.84 25.4293H995.78V26.4864H988.161V25.4293H991.56V14.221L988.321 16.1555L987.761 15.2581L991.76 12.785H992.84V25.4293Z" fill="url(#paint90_linear_122_130)"/>
<path d="M992.84 48.2221H995.78V49.2792H988.161V48.2221H991.56V37.0138L988.321 38.9483L987.761 38.0509L991.76 35.5778H992.84V48.2221Z" fill="url(#paint91_linear_122_130)"/>
<path d="M991.64 58.1712C993.067 58.1712 994.147 58.7762 994.88 59.9861C995.627 61.1827 996 62.9245 996 65.2113C996 67.4982 995.627 69.2466 994.88 70.4565C994.147 71.6664 993.067 72.2714 991.64 72.2714C990.227 72.2714 989.147 71.6664 988.401 70.4565C987.654 69.2466 987.281 67.4982 987.281 65.2113C987.281 62.9378 987.654 61.196 988.401 59.9861C989.147 58.7762 990.227 58.1712 991.64 58.1712ZM988.7 65.2113C988.7 66.8334 988.847 68.1032 989.14 69.0206L993.58 60.1855C993.114 59.5606 992.467 59.2482 991.64 59.2482C990.72 59.2482 990 59.7401 989.48 60.724C988.96 61.6946 988.7 63.1904 988.7 65.2113ZM991.64 71.1745C992.574 71.1745 993.3 70.6892 993.82 69.7186C994.34 68.7347 994.6 67.2323 994.6 65.2113C994.6 63.4962 994.433 62.1666 994.1 61.2226L989.66 70.1374C990.14 70.8288 990.8 71.1745 991.64 71.1745Z" fill="url(#paint92_linear_122_130)"/>
<path d="M991.64 80.964C993.067 80.964 994.147 81.569 994.88 82.7789C995.627 83.9755 996 85.7173 996 88.0041C996 90.291 995.627 92.0394 994.88 93.2493C994.147 94.4593 993.067 95.0642 991.64 95.0642C990.227 95.0642 989.147 94.4593 988.401 93.2493C987.654 92.0394 987.281 90.291 987.281 88.0041C987.281 85.7306 987.654 83.9888 988.401 82.7789C989.147 81.569 990.227 80.964 991.64 80.964ZM988.7 88.0041C988.7 89.6262 988.847 90.896 989.14 91.8134L993.58 82.9783C993.114 82.3534 992.467 82.041 991.64 82.041C990.72 82.041 990 82.5329 989.48 83.5168C988.96 84.4874 988.7 85.9832 988.7 88.0041ZM991.64 93.9673C992.574 93.9673 993.3 93.482 993.82 92.5114C994.34 91.5275 994.6 90.0251 994.6 88.0041C994.6 86.289 994.433 84.9594 994.1 84.0154L989.66 92.9302C990.14 93.6216 990.8 93.9673 991.64 93.9673Z" fill="url(#paint93_linear_122_130)"/>
</g>
</g>
<defs>
<filter id="filter0_f_122_130" x="-542.19" y="-719.19" width="2141.38" height="1500.38" filterUnits="userSpaceOnUse" color-interpolation-filters="sRGB">
<feFlood flood-opacity="0" result="BackgroundImageFix"/>
<feBlend mode="normal" in="SourceGraphic" in2="BackgroundImageFix" result="shape"/>
<feGaussianBlur stdDeviation="200.095" result="effect1_foregroundBlur_122_130"/>
</filter>
<linearGradient id="paint0_linear_122_130" x1="68.5" y1="267" x2="68.5" y2="578.381" gradientUnits="userSpaceOnUse">
<stop stop-color="#F7DD43"/>
<stop offset="1" stop-color="#F7DD43" stop-opacity="0"/>
</linearGradient>
<linearGradient id="paint1_linear_122_130" x1="68.5" y1="267" x2="68.5" y2="578.381" gradientUnits="userSpaceOnUse">
<stop stop-color="#F7DD43"/>
<stop offset="1" stop-color="#F7DD43" stop-opacity="0"/>
</linearGradient>
<linearGradient id="paint2_linear_122_130" x1="68.5" y1="267" x2="68.5" y2="578.381" gradientUnits="userSpaceOnUse">
<stop stop-color="#F7DD43"/>
<stop offset="1" stop-color="#F7DD43" stop-opacity="0"/>
</linearGradient>
<linearGradient id="paint3_linear_122_130" x1="68.5" y1="267" x2="68.5" y2="578.381" gradientUnits="userSpaceOnUse">
<stop stop-color="#F7DD43"/>
<stop offset="1" stop-color="#F7DD43" stop-opacity="0"/>
</linearGradient>
<linearGradient id="paint4_linear_122_130" x1="68.5" y1="267" x2="68.5" y2="578.381" gradientUnits="userSpaceOnUse">
<stop stop-color="#F7DD43"/>
<stop offset="1" stop-color="#F7DD43" stop-opacity="0"/>
</linearGradient>
<linearGradient id="paint5_linear_122_130" x1="68.5" y1="267" x2="68.5" y2="578.381" gradientUnits="userSpaceOnUse">
<stop stop-color="#F7DD43"/>
<stop offset="1" stop-color="#F7DD43" stop-opacity="0"/>
</linearGradient>
<linearGradient id="paint6_linear_122_130" x1="68.5" y1="267" x2="68.5" y2="578.381" gradientUnits="userSpaceOnUse">
<stop stop-color="#F7DD43"/>
<stop offset="1" stop-color="#F7DD43" stop-opacity="0"/>
</linearGradient>
<linearGradient id="paint7_linear_122_130" x1="68.5" y1="267" x2="68.5" y2="578.381" gradientUnits="userSpaceOnUse">
<stop stop-color="#F7DD43"/>
<stop offset="1" stop-color="#F7DD43" stop-opacity="0"/>
</linearGradient>
<linearGradient id="paint8_linear_122_130" x1="68.5" y1="267" x2="68.5" y2="578.381" gradientUnits="userSpaceOnUse">
<stop stop-color="#F7DD43"/>
<stop offset="1" stop-color="#F7DD43" stop-opacity="0"/>
</linearGradient>
<linearGradient id="paint9_linear_122_130" x1="68.5" y1="267" x2="68.5" y2="578.381" gradientUnits="userSpaceOnUse">
<stop stop-color="#F7DD43"/>
<stop offset="1" stop-color="#F7DD43" stop-opacity="0"/>
</linearGradient>
<linearGradient id="paint10_linear_122_130" x1="68.5" y1="267" x2="68.5" y2="578.381" gradientUnits="userSpaceOnUse">
<stop stop-color="#F7DD43"/>
<stop offset="1" stop-color="#F7DD43" stop-opacity="0"/>
</linearGradient>
<linearGradient id="paint11_linear_122_130" x1="68.5" y1="267" x2="68.5" y2="578.381" gradientUnits="userSpaceOnUse">
<stop stop-color="#F7DD43"/>
<stop offset="1" stop-color="#F7DD43" stop-opacity="0"/>
</linearGradient>
<linearGradient id="paint12_linear_122_130" x1="68.5" y1="267" x2="68.5" y2="578.381" gradientUnits="userSpaceOnUse">
<stop stop-color="#F7DD43"/>
<stop offset="1" stop-color="#F7DD43" stop-opacity="0"/>
</linearGradient>
<linearGradient id="paint13_linear_122_130" x1="68.5" y1="267" x2="68.5" y2="578.381" gradientUnits="userSpaceOnUse">
<stop stop-color="#F7DD43"/>
<stop offset="1" stop-color="#F7DD43" stop-opacity="0"/>
</linearGradient>
<linearGradient id="paint14_linear_122_130" x1="68.5" y1="267" x2="68.5" y2="578.381" gradientUnits="userSpaceOnUse">
<stop stop-color="#F7DD43"/>
<stop offset="1" stop-color="#F7DD43" stop-opacity="0"/>
</linearGradient>
<linearGradient id="paint15_linear_122_130" x1="68.5" y1="267" x2="68.5" y2="578.381" gradientUnits="userSpaceOnUse">
<stop stop-color="#F7DD43"/>
<stop offset="1" stop-color="#F7DD43" stop-opacity="0"/>
</linearGradient>
<linearGradient id="paint16_linear_122_130" x1="68.5" y1="267" x2="68.5" y2="578.381" gradientUnits="userSpaceOnUse">
<stop stop-color="#F7DD43"/>
<stop offset="1" stop-color="#F7DD43" stop-opacity="0"/>
</linearGradient>
<linearGradient id="paint17_linear_122_130" x1="68.5" y1="267" x2="68.5" y2="578.381" gradientUnits="userSpaceOnUse">
<stop stop-color="#F7DD43"/>
<stop offset="1" stop-color="#F7DD43" stop-opacity="0"/>
</linearGradient>
<linearGradient id="paint18_linear_122_130" x1="68.5" y1="267" x2="68.5" y2="578.381" gradientUnits="userSpaceOnUse">
<stop stop-color="#F7DD43"/>
<stop offset="1" stop-color="#F7DD43" stop-opacity="0"/>
</linearGradient>
<linearGradient id="paint19_linear_122_130" x1="68.5" y1="267" x2="68.5" y2="578.381" gradientUnits="userSpaceOnUse">
<stop stop-color="#F7DD43"/>
<stop offset="1" stop-color="#F7DD43" stop-opacity="0"/>
</linearGradient>
<linearGradient id="paint20_linear_122_130" x1="68.5" y1="267" x2="68.5" y2="578.381" gradientUnits="userSpaceOnUse">
<stop stop-color="#F7DD43"/>
<stop offset="1" stop-color="#F7DD43" stop-opacity="0"/>
</linearGradient>
<linearGradient id="paint21_linear_122_130" x1="68.5" y1="267" x2="68.5" y2="578.381" gradientUnits="userSpaceOnUse">
<stop stop-color="#F7DD43"/>
<stop offset="1" stop-color="#F7DD43" stop-opacity="0"/>
</linearGradient>
<linearGradient id="paint22_linear_122_130" x1="68.5" y1="267" x2="68.5" y2="578.381" gradientUnits="userSpaceOnUse">
<stop stop-color="#F7DD43"/>
<stop offset="1" stop-color="#F7DD43" stop-opacity="0"/>
</linearGradient>
<linearGradient id="paint23_linear_122_130" x1="68.5" y1="267" x2="68.5" y2="578.381" gradientUnits="userSpaceOnUse">
<stop stop-color="#F7DD43"/>
<stop offset="1" stop-color="#F7DD43" stop-opacity="0"/>
</linearGradient>
<linearGradient id="paint24_linear_122_130" x1="68.5" y1="267" x2="68.5" y2="578.381" gradientUnits="userSpaceOnUse">
<stop stop-color="#F7DD43"/>
<stop offset="1" stop-color="#F7DD43" stop-opacity="0"/>
</linearGradient>
<linearGradient id="paint25_linear_122_130" x1="68.5" y1="267" x2="68.5" y2="578.381" gradientUnits="userSpaceOnUse">
<stop stop-color="#F7DD43"/>
<stop offset="1" stop-color="#F7DD43" stop-opacity="0"/>
</linearGradient>
<linearGradient id="paint26_linear_122_130" x1="68.5" y1="267" x2="68.5" y2="578.381" gradientUnits="userSpaceOnUse">
<stop stop-color="#F7DD43"/>
<stop offset="1" stop-color="#F7DD43" stop-opacity="0"/>
</linearGradient>
<linearGradient id="paint27_linear_122_130" x1="68.5" y1="267" x2="68.5" y2="578.381" gradientUnits="userSpaceOnUse">
<stop stop-color="#F7DD43"/>
<stop offset="1" stop-color="#F7DD43" stop-opacity="0"/>
</linearGradient>
<linearGradient id="paint28_linear_122_130" x1="68.5" y1="267" x2="68.5" y2="578.381" gradientUnits="userSpaceOnUse">
<stop stop-color="#F7DD43"/>
<stop offset="1" stop-color="#F7DD43" stop-opacity="0"/>
</linearGradient>
<linearGradient id="paint29_linear_122_130" x1="68.5" y1="267" x2="68.5" y2="578.381" gradientUnits="userSpaceOnUse">
<stop stop-color="#F7DD43"/>
<stop offset="1" stop-color="#F7DD43" stop-opacity="0"/>
</linearGradient>
<linearGradient id="paint30_linear_122_130" x1="68.5" y1="267" x2="68.5" y2="578.381" gradientUnits="userSpaceOnUse">
<stop stop-color="#F7DD43"/>
<stop offset="1" stop-color="#F7DD43" stop-opacity="0"/>
</linearGradient>
<linearGradient id="paint31_linear_122_130" x1="68.5" y1="267" x2="68.5" y2="578.381" gradientUnits="userSpaceOnUse">
<stop stop-color="#F7DD43"/>
<stop offset="1" stop-color="#F7DD43" stop-opacity="0"/>
</linearGradient>
<linearGradient id="paint32_linear_122_130" x1="68.5" y1="267" x2="68.5" y2="578.381" gradientUnits="userSpaceOnUse">
<stop stop-color="#F7DD43"/>
<stop offset="1" stop-color="#F7DD43" stop-opacity="0"/>
</linearGradient>
<linearGradient id="paint33_linear_122_130" x1="68.5" y1="267" x2="68.5" y2="578.381" gradientUnits="userSpaceOnUse">
<stop stop-color="#F7DD43"/>
<stop offset="1" stop-color="#F7DD43" stop-opacity="0"/>
</linearGradient>
<linearGradient id="paint34_linear_122_130" x1="68.5" y1="267" x2="68.5" y2="578.381" gradientUnits="userSpaceOnUse">
<stop stop-color="#F7DD43"/>
<stop offset="1" stop-color="#F7DD43" stop-opacity="0"/>
</linearGradient>
<linearGradient id="paint35_linear_122_130" x1="68.5" y1="267" x2="68.5" y2="578.381" gradientUnits="userSpaceOnUse">
<stop stop-color="#F7DD43"/>
<stop offset="1" stop-color="#F7DD43" stop-opacity="0"/>
</linearGradient>
<linearGradient id="paint36_linear_122_130" x1="68.5" y1="267" x2="68.5" y2="578.381" gradientUnits="userSpaceOnUse">
<stop stop-color="#F7DD43"/>
<stop offset="1" stop-color="#F7DD43" stop-opacity="0"/>
</linearGradient>
<linearGradient id="paint37_linear_122_130" x1="68.5" y1="267" x2="68.5" y2="578.381" gradientUnits="userSpaceOnUse">
<stop stop-color="#F7DD43"/>
<stop offset="1" stop-color="#F7DD43" stop-opacity="0"/>
</linearGradient>
<linearGradient id="paint38_linear_122_130" x1="68.5" y1="267" x2="68.5" y2="578.381" gradientUnits="userSpaceOnUse">
<stop stop-color="#F7DD43"/>
<stop offset="1" stop-color="#F7DD43" stop-opacity="0"/>
</linearGradient>
<linearGradient id="paint39_linear_122_130" x1="68.5" y1="267" x2="68.5" y2="578.381" gradientUnits="userSpaceOnUse">
<stop stop-color="#F7DD43"/>
<stop offset="1" stop-color="#F7DD43" stop-opacity="0"/>
</linearGradient>
<linearGradient id="paint40_linear_122_130" x1="68.5" y1="267" x2="68.5" y2="578.381" gradientUnits="userSpaceOnUse">
<stop stop-color="#F7DD43"/>
<stop offset="1" stop-color="#F7DD43" stop-opacity="0"/>
</linearGradient>
<linearGradient id="paint41_linear_122_130" x1="68.5" y1="267" x2="68.5" y2="578.381" gradientUnits="userSpaceOnUse">
<stop stop-color="#F7DD43"/>
<stop offset="1" stop-color="#F7DD43" stop-opacity="0"/>
</linearGradient>
<linearGradient id="paint42_linear_122_130" x1="68.5" y1="267" x2="68.5" y2="578.381" gradientUnits="userSpaceOnUse">
<stop stop-color="#F7DD43"/>
<stop offset="1" stop-color="#F7DD43" stop-opacity="0"/>
</linearGradient>
<linearGradient id="paint43_linear_122_130" x1="68.5" y1="267" x2="68.5" y2="578.381" gradientUnits="userSpaceOnUse">
<stop stop-color="#F7DD43"/>
<stop offset="1" stop-color="#F7DD43" stop-opacity="0"/>
</linearGradient>
<linearGradient id="paint44_linear_122_130" x1="68.5" y1="267" x2="68.5" y2="578.381" gradientUnits="userSpaceOnUse">
<stop stop-color="#F7DD43"/>
<stop offset="1" stop-color="#F7DD43" stop-opacity="0"/>
</linearGradient>
<linearGradient id="paint45_linear_122_130" x1="68.5" y1="267" x2="68.5" y2="578.381" gradientUnits="userSpaceOnUse">
<stop stop-color="#F7DD43"/>
<stop offset="1" stop-color="#F7DD43" stop-opacity="0"/>
</linearGradient>
<linearGradient id="paint46_linear_122_130" x1="68.5" y1="267" x2="68.5" y2="578.381" gradientUnits="userSpaceOnUse">
<stop stop-color="#F7DD43"/>
<stop offset="1" stop-color="#F7DD43" stop-opacity="0"/>
</linearGradient>
<linearGradient id="paint47_linear_122_130" x1="954.5" y1="-33" x2="954.5" y2="265.818" gradientUnits="userSpaceOnUse">
<stop stop-color="#F7DD43"/>
<stop offset="1" stop-color="#F7DD43" stop-opacity="0"/>
</linearGradient>
<linearGradient id="paint48_linear_122_130" x1="954.5" y1="-33" x2="954.5" y2="265.818" gradientUnits="userSpaceOnUse">
<stop stop-color="#F7DD43"/>
<stop offset="1" stop-color="#F7DD43" stop-opacity="0"/>
</linearGradient>
<linearGradient id="paint49_linear_122_130" x1="954.5" y1="-33" x2="954.5" y2="265.818" gradientUnits="userSpaceOnUse">
<stop stop-color="#F7DD43"/>
<stop offset="1" stop-color="#F7DD43" stop-opacity="0"/>
</linearGradient>
<linearGradient id="paint50_linear_122_130" x1="954.5" y1="-33" x2="954.5" y2="265.818" gradientUnits="userSpaceOnUse">
<stop stop-color="#F7DD43"/>
<stop offset="1" stop-color="#F7DD43" stop-opacity="0"/>
</linearGradient>
<linearGradient id="paint51_linear_122_130" x1="954.5" y1="-33" x2="954.5" y2="265.818" gradientUnits="userSpaceOnUse">
<stop stop-color="#F7DD43"/>
<stop offset="1" stop-color="#F7DD43" stop-opacity="0"/>
</linearGradient>
<linearGradient id="paint52_linear_122_130" x1="954.5" y1="-33" x2="954.5" y2="265.818" gradientUnits="userSpaceOnUse">
<stop stop-color="#F7DD43"/>
<stop offset="1" stop-color="#F7DD43" stop-opacity="0"/>
</linearGradient>
<linearGradient id="paint53_linear_122_130" x1="954.5" y1="-33" x2="954.5" y2="265.818" gradientUnits="userSpaceOnUse">
<stop stop-color="#F7DD43"/>
<stop offset="1" stop-color="#F7DD43" stop-opacity="0"/>
</linearGradient>
<linearGradient id="paint54_linear_122_130" x1="954.5" y1="-33" x2="954.5" y2="265.818" gradientUnits="userSpaceOnUse">
<stop stop-color="#F7DD43"/>
<stop offset="1" stop-color="#F7DD43" stop-opacity="0"/>
</linearGradient>
<linearGradient id="paint55_linear_122_130" x1="954.5" y1="-33" x2="954.5" y2="265.818" gradientUnits="userSpaceOnUse">
<stop stop-color="#F7DD43"/>
<stop offset="1" stop-color="#F7DD43" stop-opacity="0"/>
</linearGradient>
<linearGradient id="paint56_linear_122_130" x1="954.5" y1="-33" x2="954.5" y2="265.818" gradientUnits="userSpaceOnUse">
<stop stop-color="#F7DD43"/>
<stop offset="1" stop-color="#F7DD43" stop-opacity="0"/>
</linearGradient>
<linearGradient id="paint57_linear_122_130" x1="954.5" y1="-33" x2="954.5" y2="265.818" gradientUnits="userSpaceOnUse">
<stop stop-color="#F7DD43"/>
<stop offset="1" stop-color="#F7DD43" stop-opacity="0"/>
</linearGradient>
<linearGradient id="paint58_linear_122_130" x1="954.5" y1="-33" x2="954.5" y2="265.818" gradientUnits="userSpaceOnUse">
<stop stop-color="#F7DD43"/>
<stop offset="1" stop-color="#F7DD43" stop-opacity="0"/>
</linearGradient>
<linearGradient id="paint59_linear_122_130" x1="954.5" y1="-33" x2="954.5" y2="265.818" gradientUnits="userSpaceOnUse">
<stop stop-color="#F7DD43"/>
<stop offset="1" stop-color="#F7DD43" stop-opacity="0"/>
</linearGradient>
<linearGradient id="paint60_linear_122_130" x1="954.5" y1="-33" x2="954.5" y2="265.818" gradientUnits="userSpaceOnUse">
<stop stop-color="#F7DD43"/>
<stop offset="1" stop-color="#F7DD43" stop-opacity="0"/>
</linearGradient>
<linearGradient id="paint61_linear_122_130" x1="954.5" y1="-33" x2="954.5" y2="265.818" gradientUnits="userSpaceOnUse">
<stop stop-color="#F7DD43"/>
<stop offset="1" stop-color="#F7DD43" stop-opacity="0"/>
</linearGradient>
<linearGradient id="paint62_linear_122_130" x1="954.5" y1="-33" x2="954.5" y2="265.818" gradientUnits="userSpaceOnUse">
<stop stop-color="#F7DD43"/>
<stop offset="1" stop-color="#F7DD43" stop-opacity="0"/>
</linearGradient>
<linearGradient id="paint63_linear_122_130" x1="954.5" y1="-33" x2="954.5" y2="265.818" gradientUnits="userSpaceOnUse">
<stop stop-color="#F7DD43"/>
<stop offset="1" stop-color="#F7DD43" stop-opacity="0"/>
</linearGradient>
<linearGradient id="paint64_linear_122_130" x1="954.5" y1="-33" x2="954.5" y2="265.818" gradientUnits="userSpaceOnUse">
<stop stop-color="#F7DD43"/>
<stop offset="1" stop-color="#F7DD43" stop-opacity="0"/>
</linearGradient>
<linearGradient id="paint65_linear_122_130" x1="954.5" y1="-33" x2="954.5" y2="265.818" gradientUnits="userSpaceOnUse">
<stop stop-color="#F7DD43"/>
<stop offset="1" stop-color="#F7DD43" stop-opacity="0"/>
</linearGradient>
<linearGradient id="paint66_linear_122_130" x1="954.5" y1="-33" x2="954.5" y2="265.818" gradientUnits="userSpaceOnUse">
<stop stop-color="#F7DD43"/>
<stop offset="1" stop-color="#F7DD43" stop-opacity="0"/>
</linearGradient>
<linearGradient id="paint67_linear_122_130" x1="954.5" y1="-33" x2="954.5" y2="265.818" gradientUnits="userSpaceOnUse">
<stop stop-color="#F7DD43"/>
<stop offset="1" stop-color="#F7DD43" stop-opacity="0"/>
</linearGradient>
<linearGradient id="paint68_linear_122_130" x1="954.5" y1="-33" x2="954.5" y2="265.818" gradientUnits="userSpaceOnUse">
<stop stop-color="#F7DD43"/>
<stop offset="1" stop-color="#F7DD43" stop-opacity="0"/>
</linearGradient>
<linearGradient id="paint69_linear_122_130" x1="954.5" y1="-33" x2="954.5" y2="265.818" gradientUnits="userSpaceOnUse">
<stop stop-color="#F7DD43"/>
<stop offset="1" stop-color="#F7DD43" stop-opacity="0"/>
</linearGradient>
<linearGradient id="paint70_linear_122_130" x1="954.5" y1="-33" x2="954.5" y2="265.818" gradientUnits="userSpaceOnUse">
<stop stop-color="#F7DD43"/>
<stop offset="1" stop-color="#F7DD43" stop-opacity="0"/>
</linearGradient>
<linearGradient id="paint71_linear_122_130" x1="954.5" y1="-33" x2="954.5" y2="265.818" gradientUnits="userSpaceOnUse">
<stop stop-color="#F7DD43"/>
<stop offset="1" stop-color="#F7DD43" stop-opacity="0"/>
</linearGradient>
<linearGradient id="paint72_linear_122_130" x1="954.5" y1="-33" x2="954.5" y2="265.818" gradientUnits="userSpaceOnUse">
<stop stop-color="#F7DD43"/>
<stop offset="1" stop-color="#F7DD43" stop-opacity="0"/>
</linearGradient>
<linearGradient id="paint73_linear_122_130" x1="954.5" y1="-33" x2="954.5" y2="265.818" gradientUnits="userSpaceOnUse">
<stop stop-color="#F7DD43"/>
<stop offset="1" stop-color="#F7DD43" stop-opacity="0"/>
</linearGradient>
<linearGradient id="paint74_linear_122_130" x1="954.5" y1="-33" x2="954.5" y2="265.818" gradientUnits="userSpaceOnUse">
<stop stop-color="#F7DD43"/>
<stop offset="1" stop-color="#F7DD43" stop-opacity="0"/>
</linearGradient>
<linearGradient id="paint75_linear_122_130" x1="954.5" y1="-33" x2="954.5" y2="265.818" gradientUnits="userSpaceOnUse">
<stop stop-color="#F7DD43"/>
<stop offset="1" stop-color="#F7DD43" stop-opacity="0"/>
</linearGradient>
<linearGradient id="paint76_linear_122_130" x1="954.5" y1="-33" x2="954.5" y2="265.818" gradientUnits="userSpaceOnUse">
<stop stop-color="#F7DD43"/>
<stop offset="1" stop-color="#F7DD43" stop-opacity="0"/>
</linearGradient>
<linearGradient id="paint77_linear_122_130" x1="954.5" y1="-33" x2="954.5" y2="265.818" gradientUnits="userSpaceOnUse">
<stop stop-color="#F7DD43"/>
<stop offset="1" stop-color="#F7DD43" stop-opacity="0"/>
</linearGradient>
<linearGradient id="paint78_linear_122_130" x1="954.5" y1="-33" x2="954.5" y2="265.818" gradientUnits="userSpaceOnUse">
<stop stop-color="#F7DD43"/>
<stop offset="1" stop-color="#F7DD43" stop-opacity="0"/>
</linearGradient>
<linearGradient id="paint79_linear_122_130" x1="954.5" y1="-33" x2="954.5" y2="265.818" gradientUnits="userSpaceOnUse">
<stop stop-color="#F7DD43"/>
<stop offset="1" stop-color="#F7DD43" stop-opacity="0"/>
</linearGradient>
<linearGradient id="paint80_linear_122_130" x1="954.5" y1="-33" x2="954.5" y2="265.818" gradientUnits="userSpaceOnUse">
<stop stop-color="#F7DD43"/>
<stop offset="1" stop-color="#F7DD43" stop-opacity="0"/>
</linearGradient>
<linearGradient id="paint81_linear_122_130" x1="954.5" y1="-33" x2="954.5" y2="265.818" gradientUnits="userSpaceOnUse">
<stop stop-color="#F7DD43"/>
<stop offset="1" stop-color="#F7DD43" stop-opacity="0"/>
</linearGradient>
<linearGradient id="paint82_linear_122_130" x1="954.5" y1="-33" x2="954.5" y2="265.818" gradientUnits="userSpaceOnUse">
<stop stop-color="#F7DD43"/>
<stop offset="1" stop-color="#F7DD43" stop-opacity="0"/>
</linearGradient>
<linearGradient id="paint83_linear_122_130" x1="954.5" y1="-33" x2="954.5" y2="265.818" gradientUnits="userSpaceOnUse">
<stop stop-color="#F7DD43"/>
<stop offset="1" stop-color="#F7DD43" stop-opacity="0"/>
</linearGradient>
<linearGradient id="paint84_linear_122_130" x1="954.5" y1="-33" x2="954.5" y2="265.818" gradientUnits="userSpaceOnUse">
<stop stop-color="#F7DD43"/>
<stop offset="1" stop-color="#F7DD43" stop-opacity="0"/>
</linearGradient>
<linearGradient id="paint85_linear_122_130" x1="954.5" y1="-33" x2="954.5" y2="265.818" gradientUnits="userSpaceOnUse">
<stop stop-color="#F7DD43"/>
<stop offset="1" stop-color="#F7DD43" stop-opacity="0"/>
</linearGradient>
<linearGradient id="paint86_linear_122_130" x1="954.5" y1="-33" x2="954.5" y2="265.818" gradientUnits="userSpaceOnUse">
<stop stop-color="#F7DD43"/>
<stop offset="1" stop-color="#F7DD43" stop-opacity="0"/>
</linearGradient>
<linearGradient id="paint87_linear_122_130" x1="954.5" y1="-33" x2="954.5" y2="265.818" gradientUnits="userSpaceOnUse">
<stop stop-color="#F7DD43"/>
<stop offset="1" stop-color="#F7DD43" stop-opacity="0"/>
</linearGradient>
<linearGradient id="paint88_linear_122_130" x1="954.5" y1="-33" x2="954.5" y2="265.818" gradientUnits="userSpaceOnUse">
<stop stop-color="#F7DD43"/>
<stop offset="1" stop-color="#F7DD43" stop-opacity="0"/>
</linearGradient>
<linearGradient id="paint89_linear_122_130" x1="954.5" y1="-33" x2="954.5" y2="265.818" gradientUnits="userSpaceOnUse">
<stop stop-color="#F7DD43"/>
<stop offset="1" stop-color="#F7DD43" stop-opacity="0"/>
</linearGradient>
<linearGradient id="paint90_linear_122_130" x1="954.5" y1="-33" x2="954.5" y2="265.818" gradientUnits="userSpaceOnUse">
<stop stop-color="#F7DD43"/>
<stop offset="1" stop-color="#F7DD43" stop-opacity="0"/>
</linearGradient>
<linearGradient id="paint91_linear_122_130" x1="954.5" y1="-33" x2="954.5" y2="265.818" gradientUnits="userSpaceOnUse">
<stop stop-color="#F7DD43"/>
<stop offset="1" stop-color="#F7DD43" stop-opacity="0"/>
</linearGradient>
<linearGradient id="paint92_linear_122_130" x1="954.5" y1="-33" x2="954.5" y2="265.818" gradientUnits="userSpaceOnUse">
<stop stop-color="#F7DD43"/>
<stop offset="1" stop-color="#F7DD43" stop-opacity="0"/>
</linearGradient>
<linearGradient id="paint93_linear_122_130" x1="954.5" y1="-33" x2="954.5" y2="265.818" gradientUnits="userSpaceOnUse">
<stop stop-color="#F7DD43"/>
<stop offset="1" stop-color="#F7DD43" stop-opacity="0"/>
</linearGradient>
<clipPath id="clip0_122_130">
<rect width="1024" height="753" fill="white"/>
</clipPath>
</defs>
</svg>
